<?xml version="1.0" encoding="UTF-8"?>
<svg id="Calque_1" xmlns="http://www.w3.org/2000/svg" version="1.1" viewBox="0 0 1366 768">
  <!-- Generator: Adobe Illustrator 30.8.0, SVG Export Plug-In . SVG Version: 2.1.4 Build 7)  -->
  <defs>
    <style>
      .st0 {
        fill: #9c9897;
      }

      .st1 {
        fill: #61bfed;
      }

      .st2 {
        fill: #1684ae;
      }

      .st3 {
        fill: #4f4949;
      }
    </style>
  </defs>
  <g>
    <path class="st3" d="M211.45,274.56v304h-73.6v-304h73.6Z"/>
    <path class="st3" d="M274.44,400.56c19.86-20,45.53-30,77-30s55.46,9.74,72,29.2c16.53,19.47,24.8,44,24.8,73.6v20.8h-129.2c.26,8.8,3.93,15.8,11,21,7.06,5.2,16.2,7.8,27.4,7.8,16.26,0,28.93-5.6,38-16.8l49.2,36c-20.8,26.94-50.94,40.4-90.4,40.4-32.27,0-58.6-9.93-79-29.8-20.4-19.86-30.6-45.13-30.6-75.8s9.93-56.4,29.8-76.4ZM368.24,431.36c-4.8-5.86-11.47-8.8-20-8.8s-15.47,2.94-20.8,8.8c-5.34,5.87-8.14,13.07-8.4,21.6h56.8c-.27-8.53-2.8-15.73-7.6-21.6Z"/>
    <path class="st3" d="M677.32,428.15c2.51,10.24,3.72,22.19,3.72,34.82v115.6h-73.6v-111.6c0-8.26-2.07-14.93-6.2-20-4.14-5.06-9.8-7.6-17-7.6-13.07,0-22.4,5.87-28,17.6v121.6h-73.6v-204h65.6l3.6,20.4c9.24-14.45,24.17-22.49,44.78-24.1,0,0,14.01,16.13,32.6,34.57,5.36,5.31,17.18,13,26.01,16.63,12.9,5.29,22.08,6.08,22.08,6.08Z"/>
    <path class="st3" d="M796.64,374.56v204h-73.6v-154.25s4.04-.86,15.61-6.88c22.12-11.5,40-42.88,40-42.88h17.99Z"/>
  </g>
  <g>
    <path class="st2" d="M693.48,329.23l44.34-111.05,53.3,59.1c-.33.99-25.31,75.95-41.63,87.61-18.67,13.33-56-35.67-56-35.67"/>
    <path class="st1" d="M763.19,345.99s-14.67,34.32-39.66,46.45c-23.65,11.47-57.58,10.33-78.91-11.47-18.57-18.98-170.94-189.21-170.94-189.21,0,0,43.14-13.86,81.81-.53,39.91,13.76,117.5,103.14,138.67,128.67,13.33,16.08,27.71,21.83,39.83,24.54,17.17,3.83,29.21,1.55,29.21,1.55Z"/>
  </g>
  <g>
    <path class="st0" d="M882.71,374.1h48v7.6h-39.31v25.96h38.33v7.6h-38.33v27.26h39.75v7.6h-48.44v-76.02Z"/>
    <path class="st0" d="M978.6,450.12h-7.6l-29.65-76.02h8.25l25.2,65.7,25.2-65.7h8.25l-29.65,76.02Z"/>
    <path class="st0" d="M1023.34,374.1h48v7.6h-39.31v25.96h38.34v7.6h-38.34v27.26h39.75v7.6h-48.44v-76.02Z"/>
    <path class="st0" d="M1089.15,374.1h6.73l49.63,62.45v-62.45h8.04v76.02h-6.73l-49.63-62.45v62.45h-8.04v-76.02Z"/>
    <path class="st0" d="M1228.15,381.6h-24.87v68.53h-8.69v-68.53h-24.87v-7.49h58.43v7.49Z"/>
    <path class="st0" d="M935.06,511.91h-24.87v68.53h-8.69v-68.53h-24.87v-7.49h58.43v7.49Z"/>
    <path class="st0" d="M951.23,504.42h48v7.6h-39.31v25.96h38.34v7.6h-38.34v27.26h39.75v7.6h-48.44v-76.02Z"/>
    <path class="st0" d="M1089.7,526.24h-8.58c-5.11-9.34-14.77-15.75-27.91-15.75-18.79,0-31.82,13.9-31.82,31.93s13.03,31.93,31.82,31.93c13.14,0,22.81-6.41,27.91-15.75h8.58c-5.54,13.68-19,23.35-36.49,23.35-23.46,0-40.51-17.16-40.51-39.53s17.05-39.53,40.51-39.53c17.49,0,30.95,9.67,36.49,23.35Z"/>
    <path class="st0" d="M1107.39,504.42h8.69v33.67h44.85v-33.67h8.69v76.02h-8.69v-34.32h-44.85v34.32h-8.69v-76.02Z"/>
  </g>
</svg>